{"title":"A Vida de David Gale 720p Dublado","uid":9053045,"size":3810270293,"categoryP":"video","categoryS":"hd___movies","magnet":"?xt=urn:btih:90e4b274b13017da394ad2d391ce9af9af457c82&amp;dn=A+Vida+de+David+Gale+720p+Dublado&amp;tr=udp%3A%2F%2Ftracker.openbittorrent.com%3A80&amp;tr=udp%3A%2F%2Fopen.demonii.com%3A1337&amp;tr=udp%3A%2F%2Ftracker.coppersurfer.tk%3A6969&amp;tr=udp%3A%2F%2Fexodus.desync.com%3A6969","seeders":1,"leechers":1,"uploader":"gbf2013","files":1,"time":1381893337,"description":"General\nUnique ID                                : 236362986257392099477251358503154875081 (0xB1D1DAF4CBC475869AA7E1A00105FAC9)\nComplete name                            : G:A Filme Alta Definicao Ja AssistidosA Vida de David Gale 720p.mkv\nFormat                                   : Matroska\nFormat version                           : Version 1\nFile size                                : 3.55 GiB\nDuration                                 : 2h 11mn\nOverall bit rate                         : 3 875 Kbps\nEncoded date                             : UTC 2013-07-10 23:47:09\nWriting application                      : mkvmerge v2.4.0 ('Fumbling Towards Ecstasy') built on Oct 11 2008 20:13:15\nWriting library                          : libebml v0.7.7 + libmatroska v0.8.1\n\nVideo\nID                                       : 1\nFormat                                   : AVC\nFormat/Info                              : Advanced Video Codec\nFormat profile                           : &lt;a class=&quot;__cf_email__&quot; href=&quot;/cdn-cgi/l/email-protection&quot; data-cfemail=&quot;450d2c222d0509766b74&quot;&gt;[email&amp;#160;protected]&lt;/a&gt;&lt;script cf-hash='f9e31' type=&quot;text/javascript&quot;&gt;\n/* &lt;![CDATA[ */!function(){try{var t=&quot;currentScript&quot;in document?document.currentScript:function(){for(var t=document.getElementsByTagName(&quot;script&quot;),e=t.length;e--;)if(t[e].getAttribute(&quot;cf-hash&quot;))return t[e]}();if(t&amp;&amp;t.previousSibling){var e,r,n,i,c=t.previousSibling,a=c.getAttribute(&quot;data-cfemail&quot;);if(a){for(e=&quot;&quot;,r=parseInt(a.substr(0,2),16),n=2;a.length-n;n+=2)i=parseInt(a.substr(n,2),16)^r,e+=String.fromCharCode(i);e=document.createTextNode(e),c.parentNode.replaceChild(e,c)}}}catch(u){}}();/* ]]&gt; */&lt;/script&gt;\nFormat settings, CABAC                   : Yes\nFormat settings, ReFrames                : 6 frames\nCodec ID                                 : V_MPEG4/ISO/AVC\nDuration                                 : 2h 11mn\nBit rate                                 : 3 500 Kbps\nWidth                                    : 1 280 pixels\nHeight                                   : 544 pixels\nDisplay aspect ratio                     : 2.35:1\nFrame rate mode                          : Constant\nFrame rate                               : 23.976 fps\nColor space                              : YUV\nChroma subsampling                       : 4:2:0\nBit depth                                : 8 bits\nScan type                                : Progressive\nBits/(Pixel*Frame)                       : 0.210\nStream size                              : 3.13 GiB (88%)\nTitle                                    : The Life of David Gale 720p DTS HighCode- PublicHD\nWriting library                          : x264 core 120\nEncoding settings                        : cabac=1 // deblock=1:-3:-1 / analyse=0x3:0x133 / me=umh / subme=10 / psy=1 / psy_rd=1.50:0.00 // me_range=128 / chroma_me=1 / trellis=2 / 8x8dct=1 / cqm=0 / deadzone=21,11 / fast_pskip=1 / chroma_qp_offset=-2 / threads=12 / sliced_threads=0 / nr=0 / decimate=1 / interlaced=0 / bluray_compat=0 / constrained_intra=0 / bframes=8 / b_pyramid=2 / b_adapt=2 / b_bias=0 / direct=3 / weightb=1 / open_gop=0 / weightp=2 / keyint=240 / keyint_min=24 / scenecut=40 / intra_refresh=0 / rc_lookahead=120 / rc=2pass / mbtree=1 / bitrate=3500 / ratetol=1.0 / qcomp=0.60 / qpmin=3 / qpmax=69 / qpstep=4 / cplxblur=20.0 / qblur=0.5 / vbv_maxrate=5000 / vbv_bufsize=5000 / nal_hrd=none / ip_ratio=1.40 / aq=1:2.00\nLanguage                                 : English\nDefault                                  : Yes\nForced                                   : No\nColor primaries                          : BT.709\nTransfer characteristics                 : BT.709\nMatrix coefficients                      : BT.709\n\nAudio\nID                                       : 2\nFormat                                   : AC-3\nFormat/Info                              : Audio Coding 3\nMode extension                           : CM (complete main)\nFormat settings, Endianness              : Big\nCodec ID                                 : A_AC3\nDuration                                 : 2h 11mn\nBit rate mode                            : Constant\nBit rate                                 : 384 Kbps\nChannel(s)                               : 6 channels\nChannel positions                        : Front: L C R, Side: L R, LFE\nSampling rate                            : 48.0 KHz\nBit depth                                : 16 bits\nCompression mode                         : Lossy\nDelay relative to video                  : 40s 0ms\nStream size                              : 360 MiB (10%)\nTitle                                    : portugues\nLanguage                                 : Portuguese\nDefault                                  : Yes\nForced                                   : No\n","torrent":{"xt":"urn:btih:90e4b274b13017da394ad2d391ce9af9af457c82","amp;dn":"A+Vida+de+David+Gale+720p+Dublado","amp;tr":["udp%3A%2F%2Ftracker.openbittorrent.com%3A80","udp%3A%2F%2Fopen.demonii.com%3A1337","udp%3A%2F%2Ftracker.coppersurfer.tk%3A6969","udp%3A%2F%2Fexodus.desync.com%3A6969"],"infoHash":"90e4b274b13017da394ad2d391ce9af9af457c82","infoHashBuffer":{"type":"Buffer","data":[144,228,178,116,177,48,23,218,57,74,210,211,145,206,154,249,175,69,124,130]},"announce":[],"urlList":[]}}